<?xml version="1.0" encoding="utf-8"?>
<svg version="1.1" xmlns:xlink="http://www.w3.org/1999/xlink" width="30px" height="35px" xmlns="http://www.w3.org/2000/svg">
  <g transform="matrix(1 0 0 1 -59 -345 )">
    <path d="M 29.62890625 0.432942708333332  C 29.8763020833333 0.721571180555551  30 1.06336805555555  30 1.45833333333333  L 30 33.5416666666667  C 30 33.9366319444444  29.8763020833333 34.2784288194444  29.62890625 34.5670572916667  C 29.3815104166667 34.8556857638889  29.0885416666667 35  28.75 35  L 18.75 35  C 18.4114583333333 35  18.1184895833333 34.8556857638889  17.87109375 34.5670572916667  C 17.6236979166667 34.2784288194444  17.5 33.9366319444444  17 33.5416666666667  L 17 1.45833333333333  C 17.5 1.06336805555555  17.6236979166667 0.721571180555551  17.87109375 0.432942708333332  C 18.1184895833333 0.144314236111109  18.4114583333333 0  18.75 0  L 28.75 0  C 29.0885416666667 0  29.3815104166667 0.144314236111109  29.62890625 0.432942708333332  Z M 12.12890625 0.432942708333332  C 12.3763020833333 0.721571180555551  12.5 1.06336805555555  13 1.45833333333333  L 13 33.5416666666667  C 12.5 33.9366319444444  12.3763020833333 34.2784288194444  12.12890625 34.5670572916667  C 11.8815104166667 34.8556857638889  11.5885416666667 35  11.25 35  L 1.25 35  C 0.911458333333333 35  0.618489583333333 34.8556857638889  0.37109375 34.5670572916667  C 0.123697916666667 34.2784288194444  0 33.9366319444444  0 33.5416666666667  L 0 1.45833333333333  C 0 1.06336805555555  0.123697916666667 0.721571180555551  0.37109375 0.432942708333332  C 0.618489583333333 0.144314236111109  0.911458333333333 0  1.25 0  L 11.25 0  C 11.5885416666667 0  11.8815104166667 0.144314236111109  12.12890625 0.432942708333332  Z " fill-rule="nonzero" fill="#ffffff" stroke="none" transform="matrix(1 0 0 1 59 345 )" />
  </g>
</svg>