<?xml version="1.0" encoding="utf-8"?>
<svg version="1.1" xmlns:xlink="http://www.w3.org/1999/xlink" width="70px" height="70px" xmlns="http://www.w3.org/2000/svg">
  <g transform="matrix(1 0 0 1 -160 -327 )">
    <path d="M 31.6731770833333 49.1731770833333  C 31.9466145833333 48.8997395833333  32.0833333333333 48.5503472222222  32 48.125  L 32 21.875  C 32.0833333333333 21.4496527777778  31.9466145833333 21.1002604166667  31.6731770833333 20.8268229166667  C 31.3997395833333 20.5533854166667  31.0503472222222 20.4166666666667  30.625 21  L 18.9583333333333 21  C 18.5329861111111 20.4166666666667  18.18359375 20.5533854166667  17.91015625 20.8268229166667  C 17.63671875 21.1002604166667  17.5 21.4496527777778  18 21.875  L 18 48.125  C 17.5 48.5503472222222  17.63671875 48.8997395833333  17.91015625 49.1731770833333  C 18.18359375 49.4466145833333  18.5329861111111 49.5833333333333  18.9583333333333 49  L 30.625 49  C 31.0503472222222 49.5833333333333  31.3997395833333 49.4466145833333  31.6731770833333 49.1731770833333  Z M 52.08984375 49.1731770833333  C 52.36328125 48.8997395833333  52.5 48.5503472222222  52 48.125  L 52 21.875  C 52.5 21.4496527777778  52.36328125 21.1002604166667  52.08984375 20.8268229166667  C 51.81640625 20.5533854166667  51.4670138888889 20.4166666666667  51.0416666666667 21  L 39.375 21  C 38.9496527777778 20.4166666666667  38.6002604166667 20.5533854166667  38.3268229166667 20.8268229166667  C 38.0533854166667 21.1002604166667  37.9166666666667 21.4496527777778  38 21.875  L 38 48.125  C 37.9166666666667 48.5503472222222  38.0533854166667 48.8997395833333  38.3268229166667 49.1731770833333  C 38.6002604166667 49.4466145833333  38.9496527777778 49.5833333333333  39.375 49  L 51.0416666666667 49  C 51.4670138888889 49.5833333333333  51.81640625 49.4466145833333  52.08984375 49.1731770833333  Z M 65.3059895833333 17.431640625  C 68.4353298611111 22.7940538194444  70 28.6501736111111  70 35  C 70 41.3498263888889  68.4353298611111 47.2059461805556  65.3059895833333 52.568359375  C 62.1766493055556 57.9307725694444  57.9307725694444 62.1766493055556  52.568359375 65.3059895833333  C 47.2059461805556 68.4353298611111  41.3498263888889 70  35 70  C 28.6501736111111 70  22.7940538194444 68.4353298611111  17.431640625 65.3059895833333  C 12.0692274305556 62.1766493055556  7.82335069444445 57.9307725694444  4.69401041666667 52.568359375  C 1.56467013888889 47.2059461805556  0 41.3498263888889  0 35  C 0 28.6501736111111  1.56467013888889 22.7940538194444  4.69401041666667 17.431640625  C 7.82335069444445 12.0692274305556  12.0692274305556 7.82335069444444  17.431640625 4.69401041666666  C 22.7940538194444 1.56467013888888  28.6501736111111 0  35 0  C 41.3498263888889 0  47.2059461805556 1.56467013888888  52.568359375 4.69401041666666  C 57.9307725694444 7.82335069444444  62.1766493055556 12.0692274305556  65.3059895833333 17.431640625  Z " fill-rule="nonzero" fill="#86d073" stroke="none" transform="matrix(1 0 0 1 160 327 )" />
  </g>
</svg>